<?xml version="1.0" encoding="UTF-8"?>
<svg id="Layer_1" data-name="Layer 1" xmlns="http://www.w3.org/2000/svg" viewBox="0 0 256 256">
  <defs>
    <style>
      .cls-1 {
        fill: #f0b8f0;
      }

      .cls-2 {
        fill: #a9f2be;
      }
    </style>
  </defs>
  <path class="cls-2" d="M59.74,8.53v60.2c0,1.7,1.97,2.65,3.3,1.59l22.3-17.84,22.3,17.84c1.33,1.06,3.3.12,3.3-1.59V8.53h-51.2Z"/>
  <polygon class="cls-1" points="37.94 3.89 14.47 3.89 3.6 16.06 5.34 238.94 15.34 251.66 39.68 251.66 37.94 3.89"/>
  <g>
    <path d="M192,119.89V21.33c0-11.94-9.39-21.33-21.33-21.33H21.33C9.39,0,0,9.39,0,21.33v213.34c0,11.94,9.39,21.33,21.33,21.33h166.4c37.55,0,68.27-30.72,68.27-68.27s-28.16-65.7-64-67.84ZM34.14,247.47h-12.8c-7.26,0-12.8-5.55-12.8-12.8V21.33c0-7.25,5.54-12.8,12.8-12.8h12.8v238.94ZM42.67,247.47V8.53h128c7.25,0,12.8,5.55,12.8,12.8v98.56c-35.84,2.14-64,32-64,67.84,0,25.6,14.08,48.22,35.41,59.74H42.67ZM187.74,247.47c-32.86,0-59.74-26.88-59.74-59.74s26.88-59.73,59.74-59.73,59.73,26.88,59.73,59.73-26.88,59.74-59.73,59.74Z"/>
    <path d="M183.47,183.47h-4.27c-7.25,0-12.8-5.55-12.8-12.8s5.55-12.8,12.8-12.8h4.27v25.6ZM196.27,192c7.25,0,12.8,5.55,12.8,12.8s-5.55,12.8-12.8,12.8h-4.27v-25.6h4.27ZM196.27,157.87c6.1,0,11,3.93,12.4,9.49.48,1.93,2.17,3.31,4.15,3.31h0c2.79,0,4.81-2.63,4.14-5.34-2.32-9.29-10.59-15.99-20.68-15.99h-4.27v-8.53c0-2.36-1.91-4.27-4.27-4.27h0c-2.36,0-4.27,1.91-4.27,4.27v8.53s-3.84,0-3.84,0c-11.7,0-21.55,9.24-21.76,20.93-.21,12.14,9.25,21.74,21.33,21.74h4.27v25.6h-4.27c-6.1,0-11-3.93-12.4-9.49-.48-1.93-2.17-3.31-4.15-3.31h0c-2.79,0-4.81,2.63-4.14,5.34,2.32,9.29,10.59,15.99,20.68,15.99h4.27v8.53c0,2.36,1.91,4.27,4.27,4.27h0c2.36,0,4.27-1.91,4.27-4.27v-8.53h3.84c11.7,0,21.55-9.24,21.76-20.93.21-12.14-9.25-21.74-21.33-21.74h-4.27v-25.6h4.27Z"/>
  </g>
  <path d="M59.74,8.53v60.2c0,1.7,1.97,2.65,3.3,1.59l22.3-17.84,22.3,17.84c1.33,1.06,3.3.12,3.3-1.59V8.53h-51.2ZM102.4,55.04l-17.06-13.65-17.07,13.65V8.54h34.13v46.5Z"/>
</svg>