<?xml version="1.0" encoding="UTF-8"?>
<svg id="Layer_1" data-name="Layer 1" xmlns="http://www.w3.org/2000/svg" viewBox="0 0 256 256">
  <defs>
    <style>
      .cls-1 {
        fill: #f0b8f0;
      }

      .cls-2 {
        fill: #a9f2be;
      }
    </style>
  </defs>
  <path d="M247.2,88.24c-12.18,0-22.06,9.88-22.06,22.06v25.94c-2.82-1.5-5.96-2.38-9.22-2.65-6.79-.49-13.5,2.03-18.31,6.84l-18.93,18.93c-19.46,6.09-32.96,24.36-32.96,44.87v47.3c0,2.43,1.99,4.41,4.41,4.41s4.41-1.99,4.41-4.41v-47.3c0-16.94,11.38-32.03,27.66-36.71.71-.22,1.37-.57,1.9-1.1l19.68-19.68c3-3,7.15-4.59,11.47-4.28,3,.22,5.78,1.32,8.07,3.13l-32.25,32.25c-1.72,1.72-1.72,4.5,0,6.22,1.72,1.72,4.5,1.72,6.22,0l35.3-35.3c.4-.4.71-.84.88-1.32.04-.13.04-.26.09-.4.13-.4.22-.79.26-1.24v-35.43c0-7.28,5.96-13.24,13.24-13.24v49.02c0,4.77-1.15,9.53-3.26,13.81l-10.19,20.38c-2.12,4.28-5.29,8.03-9.09,10.9l-25.11,18.84c-3.31,2.47-5.29,6.44-5.29,10.59v30.89c0,2.43,1.99,4.41,4.41,4.41s4.41-1.99,4.41-4.41v-30.89c0-1.37.66-2.69,1.76-3.53l25.11-18.84c4.9-3.66,8.96-8.52,11.69-14.03l10.19-20.38c2.74-5.47,4.19-11.6,4.19-17.74v-49.02c0-4.85-3.97-8.82-8.82-8.82l.13-.09Z"/>
  <path d="M77.46,159.32l-18.93-18.93c-4.81-4.81-11.52-7.32-18.31-6.84-3.26.22-6.4,1.15-9.22,2.65v-25.94c0-12.18-9.88-22.06-22.06-22.06-4.85,0-8.82,3.97-8.82,8.82v49.02c0,6.13,1.46,12.27,4.19,17.74l10.19,20.38c2.74,5.47,6.79,10.32,11.69,13.99l25.11,18.84c1.1.84,1.76,2.16,1.76,3.53v30.89c0,2.43,1.99,4.41,4.41,4.41s4.41-1.99,4.41-4.41v-30.89c0-4.15-1.99-8.12-5.29-10.59l-25.11-18.84c-3.79-2.87-6.97-6.62-9.09-10.9l-10.19-20.38c-2.12-4.28-3.26-9.05-3.26-13.81v-49.02c7.28,0,13.24,5.96,13.24,13.24v35.43c0,.4.13.84.26,1.24,0,.13.04.26.09.4.22.49.53.93.88,1.32l35.3,35.3c1.72,1.72,4.5,1.72,6.22,0,1.72-1.72,1.72-4.5,0-6.22l-32.25-32.25c2.29-1.81,5.12-2.91,8.07-3.13,4.28-.31,8.43,1.24,11.47,4.28l19.68,19.68c.53.53,1.19.93,1.9,1.1,16.28,4.68,27.66,19.77,27.66,36.71v47.3c0,2.43,1.99,4.41,4.41,4.41s4.41-1.99,4.41-4.41v-47.3c0-20.47-13.5-38.74-32.96-44.87l.13.13Z"/>
  <path d="M167.78,0c-10.15,0-19.07,5.78-23.48,14.43-4.5-3.49-10.1-5.61-16.23-5.61s-11.74,2.12-16.24,5.61c-4.41-8.65-13.33-14.43-23.47-14.43-14.61,0-26.48,11.87-26.48,26.47s11.87,26.48,26.48,26.48c5.91,0,11.6-2.03,16.19-5.61,4.41,8.56,13.28,14.43,23.52,14.43s19.14-5.87,23.51-14.43c4.59,3.53,10.24,5.61,16.2,5.61,14.6,0,26.47-11.87,26.47-26.48S182.38,0,167.78,0ZM101.6,35.3c0,.88.04,1.76.13,2.65-3.36,3.88-8.21,6.17-13.37,6.17-9.75,0-17.65-7.9-17.65-17.65s7.9-17.65,17.65-17.65c8.03,0,14.87,5.39,16.94,13.02-2.34,3.97-3.7,8.56-3.7,13.46ZM128.07,52.95c-9.75,0-17.65-7.9-17.65-17.65s7.9-17.65,17.65-17.65,17.65,7.9,17.65,17.65-7.9,17.65-17.65,17.65ZM167.78,44.12c-5.17,0-10.02-2.29-13.37-6.17.08-.89.13-1.77.13-2.65,0-4.94-1.37-9.53-3.71-13.46,2.08-7.59,8.92-13.02,16.95-13.02,9.75,0,17.64,7.9,17.64,17.65s-7.89,17.65-17.64,17.65Z"/>
  <path class="cls-2" d="M185.42,26.47c0,9.75-7.89,17.65-17.64,17.65-5.17,0-10.02-2.29-13.37-6.17.08-.89.13-1.77.13-2.65,0-4.94-1.37-9.53-3.71-13.46,2.08-7.59,8.92-13.02,16.95-13.02,9.75,0,17.64,7.9,17.64,17.65Z"/>
  <path class="cls-1" d="M101.6,35.3c0,.88.04,1.76.13,2.65-3.36,3.88-8.21,6.17-13.37,6.17-9.75,0-17.65-7.9-17.65-17.65s7.9-17.65,17.65-17.65c8.03,0,14.87,5.39,16.94,13.02-2.34,3.97-3.7,8.56-3.7,13.46Z"/>
  <path d="M172.19,61.77h-8.83c-9.7,0-19.06,3.22-26.65,9.05-1.41-.14-2.82-.22-4.23-.22h-8.83c-1.45,0-2.87.08-4.23.22-7.59-5.83-16.95-9.05-26.65-9.05h-8.83c-11.82,0-22.9,4.59-31.15,12.93-8.34,8.29-12.97,19.37-12.97,31.19,0,9.75,7.9,17.65,17.65,17.65h24.53c3.04,5.25,8.69,8.83,15.18,8.83h61.77c6.49,0,12.13-3.58,15.18-8.83h24.53c4.72,0,9.13-1.85,12.49-5.16,3.35-3.31,5.16-7.77,5.16-12.49,0-24.31-19.81-44.12-44.12-44.12ZM79.53,114.72h-22.06c-4.86,0-8.83-3.97-8.83-8.83,0-9.44,3.66-18.31,10.37-24.97,6.62-6.66,15.49-10.32,24.93-10.32h8.82c5.08,0,10.06,1.1,14.56,3.17-16.28,6.49-27.79,22.42-27.79,40.95ZM158.95,123.54h-61.77c-4.86,0-8.83-3.97-8.83-8.82,0-19.46,15.84-35.3,35.3-35.3h8.83c19.45,0,35.29,15.84,35.29,35.3,0,4.85-3.97,8.82-8.82,8.82ZM204.88,112.11c-1.68,1.68-3.88,2.61-6.22,2.61h-22.06c0-18.58-11.56-34.46-27.8-40.95,4.55-2.07,9.49-3.17,14.56-3.17h8.83c19.45,0,35.29,15.84,35.29,35.29,0,2.34-.92,4.55-2.6,6.22Z"/>
  <path class="cls-1" d="M107.32,73.77c-16.28,6.49-27.79,22.42-27.79,40.95h-22.06c-4.86,0-8.83-3.97-8.83-8.83,0-9.44,3.66-18.31,10.37-24.97,6.62-6.66,15.49-10.32,24.93-10.32h8.82c5.08,0,10.06,1.1,14.56,3.17Z"/>
  <path class="cls-2" d="M207.48,105.89c0,2.34-.92,4.55-2.6,6.22-1.68,1.68-3.88,2.61-6.22,2.61h-22.06c0-18.58-11.56-34.46-27.8-40.95,4.55-2.07,9.49-3.17,14.56-3.17h8.83c19.45,0,35.29,15.84,35.29,35.29Z"/>
</svg>