<?xml version="1.0" encoding="UTF-8"?>
<svg id="Layer_1" data-name="Layer 1" xmlns="http://www.w3.org/2000/svg" viewBox="0 0 256 256">
  <defs>
    <style>
      .cls-1, .cls-2, .cls-3 {
        fill-rule: evenodd;
      }

      .cls-2 {
        fill: #a9f2be;
      }

      .cls-3 {
        fill: #f0b8f0;
      }
    </style>
  </defs>
  <path class="cls-1" d="M204.36,158.19v.37c0,1.1.43,2.16,1.21,2.93.78.78,1.84,1.22,2.94,1.22h.74v9.09h0c0,3.94,3.21,7.15,7.16,7.15s7.16-3.21,7.16-7.16v-9.06h.74c1.1,0,2.15-.44,2.93-1.22.77-.77,1.21-1.83,1.21-2.92v-26.3c0-1.1-.43-2.16-1.21-2.94-.11-.11-.22-.21-.34-.3-.74-.61-1.65-.93-2.6-.94h-15.79c-2.29,0-4.15,1.86-4.15,4.17v.37h0c-6.67-1.12-13.18-3.05-19.38-5.73-7.2-3.1-13.65-7.68-18.94-13.45-.86-.96-2.23-1.29-3.44-.83-1.2.46-2.01,1.61-2.02,2.91v60.68c0,1.36.87,2.56,2.15,2.98,1.28.43,2.69-.01,3.49-1.09,4.75-5.65,10.63-10.21,17.29-13.41,6.61-3.14,13.63-5.33,20.86-6.53h-.01Z"/>
  <path class="cls-1" d="M246.1,100.41h-6.18v-44.23c-.03-8.55-6.94-15.46-15.43-15.46h-4.43v-21.83c0-4.26-3.44-7.7-7.67-7.7h-60.57v.03c-4.23,0-7.67,3.41-7.67,7.67v21.83h-19.61v-23.13c0-4.37-3.55-7.9-7.9-7.9H43.87c-4.37,0-7.9,3.53-7.93,7.9v23.1h-4.4c-8.52.03-15.43,6.94-15.43,15.46v49.79h-6.63c-5.22.03-9.45,4.26-9.48,9.48v69.73c.03,5.22,4.26,9.48,9.48,9.48h7.02c1.64,7,7.84,11.93,15.04,11.96h23.58v36.59c0,1.13.62,2.17,1.58,2.74.96.54,2.14.54,3.13,0l68.07-39.32h96.59c7.17-.03,13.4-4.96,15.01-11.96h6.6c5.47,0,9.9-4.46,9.9-9.9v-74.42c0-5.47-4.43-9.9-9.9-9.9ZM150.41,18.85c0-.76.65-1.41,1.41-1.41h60.57v.03c.79,0,1.41.62,1.41,1.41v49.93c0,.76-.62,1.41-1.41,1.41h-60.57c-.76,0-1.41-.65-1.41-1.41V18.85ZM42.2,17.58c.03-.9.76-1.64,1.66-1.64h72.75c.9,0,1.64.73,1.64,1.64v26.97l-12.07-12.07c-1.21-1.24-3.16-1.24-4.4,0l-11.62,11.65-18.2-18.17c-.56-.56-1.35-.9-2.2-.9s-1.64.34-2.2.9l-25.36,25.39V17.58ZM42.2,60.18l27.56-27.59,18.17,18.17c1.21,1.21,3.19,1.21,4.43,0l.17-.17,11.45-11.48,14.3,14.3v16.67c0,.9-.73,1.64-1.64,1.66H43.87c-.9-.03-1.64-.76-1.66-1.66v-9.9ZM9.48,188.36c-1.78,0-3.22-1.47-3.22-3.22v-69.73c0-1.78,1.44-3.22,3.22-3.22h69.17l-15.49,15.46h-20.54c-1.72,0-3.13,1.41-3.13,3.13s1.41,3.13,3.13,3.13h14.27l-7.28,7.31c-.51.48-.82,1.13-.9,1.83l-.85,4.09h-28.66c-1.69.06-3.05,1.44-3.05,3.13s1.35,3.07,3.05,3.13h27.36l-1.27,6.29c-.23,1.04.08,2.12.85,2.85.76.73,1.81,1.04,2.85.85l-.03-.03,16.81-3.55c.59-.11,1.16-.42,1.58-.85l41.98-41.98v68.15c0,1.75-1.44,3.22-3.22,3.22H9.48ZM106.49,93.21c1.61-1.61,4.26-1.61,5.9,0l2.99,2.99c1.61,1.64,1.61,4.26,0,5.92l-51.79,51.79-11.2,2.37,2.31-11.28,51.79-51.79ZM230.87,197.73c-1.69,1.66-4.01,2.6-6.4,2.6h-97.41c-.62,0-1.21.2-1.75.54l-63.92,36.93v-34.33c0-.82-.34-1.61-.93-2.2-.59-.59-1.38-.93-2.2-.93h-26.71c-2.4,0-4.68-.93-6.4-2.6-.9-.87-1.61-1.95-2.12-3.1h83.1c5.25-.03,9.48-4.26,9.51-9.48v-69.73c0-1.18-.25-2.34-.68-3.44-.03-.14-.11-.28-.17-.42l5.02-5.02c4.06-4.06,4.06-10.66,0-14.75l-2.99-2.99c-4.09-4.06-10.69-4.06-14.75,0h-.03l-17.15,17.15H22.37v-49.79c0-5.05,4.09-9.17,9.17-9.17h4.4v23.1c.03,4.37,3.55,7.93,7.93,7.93h72.78c2.2,0,4.17-.87,5.59-2.31,1.44-1.44,2.31-3.41,2.31-5.61v-23.1h19.61v21.83c0,4.23,3.44,7.67,7.67,7.67h60.57c4.23,0,7.67-3.44,7.67-7.67v-21.83h4.4c5.08.03,9.17,4.12,9.17,9.17v44.23h-90.69c-5.47.03-9.9,4.46-9.9,9.9v74.44c0,5.44,4.43,9.87,9.9,9.9h90.04c-.51,1.16-1.21,2.23-2.12,3.1ZM249.74,184.73c0,2-1.64,3.64-3.64,3.64h-103.16c-2,0-3.64-1.64-3.64-3.64v-74.44c0-2,1.64-3.64,3.64-3.64h103.16c2,0,3.64,1.64,3.64,3.64v74.44ZM156.08,65.88h52.05c1.72,0,3.13-1.38,3.13-3.13s-1.41-3.13-3.13-3.13h-4.2v-23.84c0-1.75-1.41-3.13-3.13-3.13s-3.13,1.38-3.13,3.13v23.84h-6.21v-18.84c.03-.85-.28-1.66-.87-2.26-.59-.62-1.38-.96-2.26-.96s-1.66.34-2.23.96c-.59.59-.93,1.41-.9,2.26v18.84h-6.18v-13.85c0-1.72-1.41-3.13-3.13-3.13s-3.13,1.41-3.13,3.13v13.85h-6.18v-8.83c0-.85-.31-1.66-.9-2.28-.59-.59-1.38-.93-2.23-.93s-1.66.34-2.26.93c-.59.62-.93,1.44-.87,2.28v8.83h-4.23c-1.72,0-3.1,1.41-3.1,3.13s1.38,3.13,3.1,3.13ZM158.68,45.71v.03l14.92-8.6,10.24-.03c.62,0,1.24-.17,1.75-.54l15.32-8.94h.03c1.47-.85,2-2.76,1.13-4.26-.87-1.5-2.79-2-4.26-1.16l-14.81,8.6-10.21.03c-.56,0-1.1.14-1.58.39l-15.68,9.06c-1.5.87-2,2.79-1.13,4.29.87,1.47,2.76,2,4.29,1.13ZM96.42,147.15h-10.49c-1.69.06-3.02,1.44-3.02,3.13s1.33,3.07,3.02,3.13h10.58c.82,0,1.61-.34,2.2-.87.59-.59.96-1.41.96-2.26s-.37-1.66-.96-2.26c-.62-.59-1.44-.9-2.28-.87ZM96.42,166.64v-.03l-53.8.03c-.85-.06-1.66.28-2.29.87-.59.59-.93,1.41-.93,2.26s.34,1.64.93,2.23c.62.59,1.44.9,2.29.9h53.8c.85,0,1.66-.31,2.28-.9.59-.59.96-1.38.96-2.23s-.37-1.66-.96-2.26c-.62-.59-1.44-.93-2.28-.87ZM29.68,166.64v-.03h-10.47v.03c-1.69.03-3.05,1.41-3.05,3.13s1.35,3.07,3.05,3.13h10.47c.85,0,1.66-.31,2.29-.9.59-.59.96-1.38.96-2.23s-.37-1.66-.96-2.26c-.62-.59-1.44-.9-2.29-.87ZM19.21,133.92h10.47c1.72,0,3.13-1.38,3.13-3.13s-1.41-3.13-3.13-3.13h-10.47c-1.75,0-3.13,1.41-3.13,3.13s1.38,3.13,3.13,3.13ZM85.93,153.41h10.58c.82,0,1.61-.34,2.2-.87.59-.59.96-1.41.96-2.26s-.37-1.66-.96-2.26c-.62-.59-1.44-.9-2.28-.87h-10.49c-1.69.06-3.02,1.44-3.02,3.13s1.33,3.07,3.02,3.13ZM96.42,166.64v-.03l-53.8.03c-.85-.06-1.66.28-2.29.87-.59.59-.93,1.41-.93,2.26s.34,1.64.93,2.23c.62.59,1.44.9,2.29.9h53.8c.85,0,1.66-.31,2.28-.9.59-.59.96-1.38.96-2.23s-.37-1.66-.96-2.26c-.62-.59-1.44-.93-2.28-.87ZM29.68,166.64v-.03h-10.47v.03c-1.69.03-3.05,1.41-3.05,3.13s1.35,3.07,3.05,3.13h10.47c.85,0,1.66-.31,2.29-.9.59-.59.96-1.38.96-2.23s-.37-1.66-.96-2.26c-.62-.59-1.44-.9-2.29-.87ZM19.21,133.92h10.47c1.72,0,3.13-1.38,3.13-3.13s-1.41-3.13-3.13-3.13h-10.47c-1.75,0-3.13,1.41-3.13,3.13s1.38,3.13,3.13,3.13ZM31.96,167.52c-.62-.59-1.44-.9-2.29-.87v-.03h-10.47v.03c-1.69.03-3.05,1.41-3.05,3.13s1.35,3.07,3.05,3.13h10.47c.85,0,1.66-.31,2.29-.9.59-.59.96-1.38.96-2.23s-.37-1.66-.96-2.26ZM98.7,167.52c-.62-.59-1.44-.93-2.28-.87v-.03l-53.8.03c-.85-.06-1.66.28-2.29.87-.59.59-.93,1.41-.93,2.26s.34,1.64.93,2.23c.62.59,1.44.9,2.29.9h53.8c.85,0,1.66-.31,2.28-.9.59-.59.96-1.38.96-2.23s-.37-1.66-.96-2.26ZM98.7,148.03c-.62-.59-1.44-.9-2.28-.87h-10.49c-1.69.06-3.02,1.44-3.02,3.13s1.33,3.07,3.02,3.13h10.58c.82,0,1.61-.34,2.2-.87.59-.59.96-1.41.96-2.26s-.37-1.66-.96-2.26ZM29.68,127.66h-10.47c-1.75,0-3.13,1.41-3.13,3.13s1.38,3.13,3.13,3.13h10.47c1.72,0,3.13-1.38,3.13-3.13s-1.41-3.13-3.13-3.13ZM208.13,59.62h-4.2v-23.84c0-1.75-1.41-3.13-3.13-3.13s-3.13,1.38-3.13,3.13v23.84h-6.21v-18.84c.03-.85-.28-1.66-.87-2.26-.59-.62-1.38-.96-2.26-.96s-1.66.34-2.23.96c-.59.59-.93,1.41-.9,2.26v18.84h-6.18v-13.85c0-1.72-1.41-3.13-3.13-3.13s-3.13,1.41-3.13,3.13v13.85h-6.18v-8.83c0-.85-.31-1.66-.9-2.28-.59-.59-1.38-.93-2.23-.93s-1.66.34-2.26.93c-.59.62-.93,1.44-.87,2.28v8.83h-4.23c-1.72,0-3.1,1.41-3.1,3.13s1.38,3.13,3.1,3.13h52.05c1.72,0,3.13-1.38,3.13-3.13s-1.41-3.13-3.13-3.13ZM202.06,23.37c-.87-1.5-2.79-2-4.26-1.16l-14.81,8.6-10.21.03c-.56,0-1.1.14-1.58.39l-15.68,9.06c-1.5.87-2,2.79-1.13,4.29.87,1.47,2.76,2,4.29,1.13v.03l14.92-8.6,10.24-.03c.62,0,1.24-.17,1.75-.54l15.32-8.94h.03c1.47-.85,2-2.76,1.13-4.26ZM208.13,59.62h-4.2v-23.84c0-1.75-1.41-3.13-3.13-3.13s-3.13,1.38-3.13,3.13v23.84h-6.21v-18.84c.03-.85-.28-1.66-.87-2.26-.59-.62-1.38-.96-2.26-.96s-1.66.34-2.23.96c-.59.59-.93,1.41-.9,2.26v18.84h-6.18v-13.85c0-1.72-1.41-3.13-3.13-3.13s-3.13,1.41-3.13,3.13v13.85h-6.18v-8.83c0-.85-.31-1.66-.9-2.28-.59-.59-1.38-.93-2.23-.93s-1.66.34-2.26.93c-.59.62-.93,1.44-.87,2.28v8.83h-4.23c-1.72,0-3.1,1.41-3.1,3.13s1.38,3.13,3.1,3.13h52.05c1.72,0,3.13-1.38,3.13-3.13s-1.41-3.13-3.13-3.13ZM158.68,45.71v.03l14.92-8.6,10.24-.03c.62,0,1.24-.17,1.75-.54l15.32-8.94h.03c1.47-.85,2-2.76,1.13-4.26-.87-1.5-2.79-2-4.26-1.16l-14.81,8.6-10.21.03c-.56,0-1.1.14-1.58.39l-15.68,9.06c-1.5.87-2,2.79-1.13,4.29.87,1.47,2.76,2,4.29,1.13Z"/>
  <path class="cls-3" d="M115.38,102.13l-51.79,51.79-11.2,2.37,2.31-11.28,51.79-51.79c1.61-1.61,4.26-1.61,5.9,0l2.99,2.99c1.61,1.64,1.61,4.26,0,5.92Z"/>
  <polygon class="cls-2" points="222.2 156.47 222.21 134.39 210.63 134.39 210.63 156.46 222.2 156.47"/>
  <path class="cls-2" d="M215.51,162.74h1.81v9.09c-.01.48-.41.88-.89.89-.5,0-.89-.4-.89-.89v-9.09h-.02Z"/>
  <path class="cls-2" d="M204.36,139c-7.55-1.2-14.91-3.34-21.92-6.37-5.63-2.46-10.9-5.72-15.6-9.69v45.5c4.18-3.76,8.86-6.9,13.91-9.34,7.48-3.56,15.43-6.01,23.6-7.27v-12.83h.01Z"/>
</svg>