<?xml version="1.0" encoding="UTF-8"?>
<svg id="Layer_1" data-name="Layer 1" xmlns="http://www.w3.org/2000/svg" viewBox="0 0 256 256">
  <defs>
    <style>
      .cls-1 {
        fill: #f0b8f0;
      }

      .cls-2 {
        fill: #a9f2be;
      }
    </style>
  </defs>
  <path d="M249.03,130.05l-7.8-33.64c-.05-.26-.14-.5-.24-.72,1.32-15.5.6-30.27-5.81-38.23-2.91-3.62-6.91-5.65-11.46-5.89l-9.14-.65c-.32-.03-.8-.51-1.31-1.5,4.13-9.52,2.91-20.86-3.83-36.32-5.3-12.71-17.96-15.03-27.45-11.78-9.5,3.19-18.13,12.71-14.65,26,3.99,16.41,9.91,26.15,19.01,31.23.17,1.04.07,1.67-.09,1.89-5.6,4.56-7.94,10.73-7.19,18.67l-5.92,8.94-30.28,11.78c-.09.03-.17.06-.26.1-6.14,2.86-9.27,9.68-7.41,16.26,1.76,5.98,7.17,9.97,13.36,9.97.56,0,1.13-.04,1.71-.1l33.96-5.48c2.6-.39,5.04-1.24,7.29-2.51l3.97,11.38-8.28,12.15c-3.66,5.03-3.1,11.91,1.33,16.35,2.29,2.28,5.27,3.5,8.31,3.64l-2.4,73.21c-.25,8.71,5.76,15.87,13.98,16.68.51.05,1.01.07,1.52.07,3.58,0,7.03-1.23,9.85-3.56.13-.11.25-.24.39-.35,2.71,5.07,7.69,8.35,13.46,8.35,8.54,0,15.48-6.97,15.48-15.55v-109.46c.01-.31-.03-.63-.1-.93ZM182.96,112.38l-33.84,5.46c-2.67.31-5.18-1.37-5.95-3.97-.73-2.56.45-5.23,2.83-6.4l31.37-12.2c.79-.31,1.47-.85,1.95-1.57l2.45-3.69,6.96,20.01c-1.75,1.28-3.62,2.04-5.77,2.36ZM194.41,152.07c-1.53-1.53-1.73-3.89-.42-5.71l20.3-29.8c.42-.62.67-1.36.71-2.11l1.1-20.42c.12-2.29-1.63-4.24-3.92-4.36-.08-.01-.16-.01-.22-.01-2.19,0-4.01,1.71-4.14,3.92l-1.03,19.27-5.5,8.07-3.71-10.66c-.06-.19-.11-.38-.19-.57l-9.25-26.58c-2.55-9.9.33-13.83,3.5-16.35.07-.06.15-.13.22-.2,2.06-1.92,4.09-5.58,1.98-12.11-.35-1.09-1.14-1.99-2.18-2.48-7.76-3.65-12.62-11.61-16.29-26.67-2.16-8.26,3.1-14.05,9.28-16.11,6.16-2.12,13.86-.73,17.16,7.17,6.19,14.2,7.16,23.49,3.24,31.06-.54,1.02-.61,2.21-.23,3.3,1.86,5.2,4.85,8.04,9.04,8.48l9.35.67c2.31.11,4.06,1.01,5.51,2.81,8.36,10.38,2.97,43.04,1.19,53.76l-.33,2.07c-.52,3.22-2.02,5.85-5.03,8.86l-24.75,25.3c-1.74,1.04-3.96.82-5.39-.6ZM240.86,240.45c0,4-3.23,7.25-7.19,7.25-4.44,0-6.88-3.99-7.28-7.73l-8.9-76.92c-.27-2.27-2.29-3.9-4.59-3.65-2.28.27-3.9,2.33-3.64,4.59l8.13,70.29-.21,2.4c-.19,1.91-1.12,3.64-2.63,4.89-1.5,1.24-3.39,1.82-5.28,1.63-3.84-.37-6.62-3.89-6.5-8.18l2.5-76.14c.05-.05.11-.09.16-.14l25.03-25.57c4.24-4.24,6.5-8.37,7.32-13.37l.16-1.01,2.94,12.66-.02,109ZM168.45,230.39h-4.77c1.5-2.91,2.1-6.25,1.53-9.6-.03-.17-.06-.32-.11-.49l-13.84-46.4c-2.29-7.49-7.58-12.61-14.19-13.87-1.21-3.59-3.2-6.81-5.78-9.48l17.08,6.27c.46.16.93.25,1.43.25.08,0,.17,0,.26-.01,5.7-.35,10.61-4.49,11.94-10.07,1.35-5.63-1.12-11.38-6.13-14.34-.11-.07-.22-.12-.34-.18,0,0-9.99-4.7-30.04-14.16-1.26-2.04-4.39-7.08-9.36-15.17-1-2.49-3.22-4.33-5.18-5.97-.5-.41-1.19-.99-1.74-1.5.24-.13.52-.27.86-.44.16-.08.3-.16.43-.24,9.2-5.85,14.06-15.78,16.21-33.2,1.71-13.13-7.53-21.26-16.92-23.31-9.16-2.94-21.25-.54-26.34,11.64-6.5,15.14-7.6,25.78-3.55,35.02-.52,1.02-.92,1.3-.92,1.3-9.21.64-16.48,6.68-19.45,16.12-.04.12-.07.25-.1.37l-8.68,39.94h-8.18v-16.09c0-7.05-5.74-12.8-12.8-12.8h-11.64c-2.29,0-4.15,1.86-4.15,4.15s1.86,4.14,4.15,4.14h11.64c2.45,0,4.51,2.07,4.51,4.51v43.83c-16.07,6.67-27.43,22.53-27.43,41.01,0,24.47,19.89,44.37,44.32,44.37s44.38-19.9,44.38-44.38c0-1.01-.08-2-.16-2.99h34.71v5.5c-8.71,2.73-15.05,10.85-15.05,20.43,0,11.83,9.62,21.45,21.45,21.45,10.41,0,19.11-7.46,21.05-17.31h10.89c2.28,0,4.14-1.86,4.14-4.14.01-2.3-1.84-4.16-4.13-4.16ZM67.5,104.87c1.98-6.14,6.27-9.75,12.23-10.18,2.7-.28,6.39-1.96,8.63-8.27.39-1.09.3-2.29-.23-3.31-3.78-7.23-2.9-16.11,2.94-29.77,3.35-8,10.89-8.73,16.34-6.93.14.05.3.09.45.12,6.05,1.27,11.68,6.14,10.62,14.21-1.81,14.58-5.46,22.71-12.23,27.11-1.61.78-5.51,2.82-6,6.73-.51,4.05,2.76,6.77,5.38,8.95.93.79,2.51,2.1,2.78,2.63.1.33.24.66.42.96,6.83,11.1,10.25,16.6,10.25,16.6.43.67,1.02,1.22,1.75,1.55,19.12,9.02,29.42,13.88,30.95,14.6,1.77,1.12,2.62,3.18,2.15,5.2-.44,1.81-1.89,3.21-3.66,3.61l-43.67-16.02-11.33-19.14c-1.16-1.97-3.71-2.63-5.67-1.46-1.97,1.17-2.64,3.71-1.46,5.68l12.07,20.42c.49.82,1.24,1.45,2.14,1.78l8,2.93h-51.11s8.26-38,8.26-38ZM51.17,247.7c-19.85,0-36.02-16.19-36.02-36.08s16.17-36.09,36.02-36.09,36.09,16.19,36.09,36.09-16.19,36.08-36.09,36.08ZM94.05,200.35c-5.01-19.02-22.31-33.1-42.88-33.1-2.93,0-5.81.3-8.59.85v-16.94h70.65c8.08,0,14.83,5.7,16.49,13.29.02.11.03.21.06.32.2,1.06.32,2.16.32,3.28v32.3h-36.05ZM136.5,247.7c-7.26,0-13.16-5.91-13.16-13.16s5.9-13.1,13.16-13.1,12.69,5.43,13.13,12.25c-.02.19,0,.38.01.57-.01.09-.04.18-.04.28,0,.14.04.26.05.4-.21,7.07-6.02,12.76-13.15,12.76ZM156.39,226.52c-2.96-7.27-9.82-12.57-17.99-13.29v-43.92c2.2,1.4,3.96,3.83,4.93,6.98l13.75,46.12c.2,1.44-.05,2.86-.69,4.11Z"/>
  <path class="cls-2" d="M149.65,234.94c-.21,7.07-6.02,12.76-13.15,12.76s-13.16-5.91-13.16-13.16,5.9-13.1,13.16-13.1,12.69,5.43,13.13,12.25c-.02.19,0,.38.01.57-.01.09-.04.18-.04.28,0,.14.04.26.05.4Z"/>
  <path class="cls-1" d="M87.26,211.62c0,19.89-16.19,36.08-36.09,36.08s-36.02-16.19-36.02-36.08,16.17-36.09,36.02-36.09,36.09,16.19,36.09,36.09Z"/>
</svg>