<?xml version="1.0" encoding="UTF-8"?>
<svg id="Layer_1" data-name="Layer 1" xmlns="http://www.w3.org/2000/svg" viewBox="0 0 128 128">
  <defs>
    <style>
      .cls-1 {
        fill: #a9f2be;
      }
    </style>
  </defs>
  <rect class="cls-1" width="128" height="128" rx="5.48" ry="5.48"/>
  <g>
    <path d="M28.49,36.23v55.55h-11.7v-55.55h11.7ZM57.94,59.03v9.43H22.6v-9.43h35.35ZM63.58,36.23v55.55h-11.78v-55.55h11.78Z"/>
    <path d="M94.4,36.23c6.11,0,10.93,1.5,14.43,4.5,3.51,3,5.26,7.08,5.26,12.25,0,3.59-.79,6.64-2.36,9.13-1.57,2.5-3.83,4.39-6.78,5.68-2.95,1.29-6.47,2.02-10.56,2.19l-1.09.5h-11.53v21.29h-11.53v-55.55h24.15ZM92.96,61.73c2.92,0,5.18-.63,6.77-1.89,1.6-1.26,2.4-3.35,2.4-6.27s-.83-5.08-2.48-6.31c-1.66-1.23-3.89-1.85-6.69-1.85h-11.19v16.33h11.19ZM99.87,64.17l17.34,27.6h-13.13l-14.22-24.41,10.01-3.2Z"/>
  </g>
</svg>